<svg xmlns="http://www.w3.org/2000/svg" xmlns:xlink="http://www.w3.org/1999/xlink" width="1920" zoomAndPan="magnify" viewBox="0 0 1440 809.999993" height="1080" preserveAspectRatio="xMidYMid meet" version="1.0"><defs><clipPath id="f2abad1967"><path d="M 200 203.386719 L 751 203.386719 L 751 511 L 200 511 Z M 200 203.386719 " clip-rule="nonzero"/></clipPath><clipPath id="53d1ce3503"><path d="M 0 160.011719 L 460 160.011719 L 460 468 L 0 468 Z M 0 160.011719 " clip-rule="nonzero"/></clipPath><clipPath id="06dcd7ea2a"><path d="M 553 203.386719 L 1104 203.386719 L 1104 511 L 553 511 Z M 553 203.386719 " clip-rule="nonzero"/></clipPath><clipPath id="aa84d75be9"><path d="M 1059 221.511719 L 1440 221.511719 L 1440 529 L 1059 529 Z M 1059 221.511719 " clip-rule="nonzero"/></clipPath><clipPath id="f4ba8e91b5"><path d="M 481 299.324219 L 1032 299.324219 L 1032 607 L 481 607 Z M 481 299.324219 " clip-rule="nonzero"/></clipPath></defs><path fill="#948b9e" d="M -11.898438 480.578125 C -33.09375 456.609375 -33.558594 406.449219 -0.921875 388.285156 C 31.714844 370.121094 73.359375 380.03125 105.527344 399.015625 C 106.851562 351.664062 150.0625 309.429688 197.433594 309.179688 C 244.800781 308.929688 288.453125 350.710938 290.277344 398.042969 C 307.511719 382.296875 338.894531 379.855469 362.175781 392.742188 C 385.050781 405.402344 395.832031 425.429688 393.136719 448.152344 C 425.613281 438.265625 478.503906 460.859375 468.234375 511.695312 C 454.382812 580.253906 358.476562 571.773438 358.476562 571.773438 C 358.476562 571.773438 335.242188 609.773438 270.671875 615.675781 C 228.335938 619.546875 182.738281 604.636719 157.449219 579.859375 C 142.300781 597.09375 105.199219 606.691406 52.3125 595.394531 C 27.953125 590.191406 0.449219 569.71875 9.691406 549.179688 C -64.25 562.53125 -82.996094 528.574219 -79.65625 510.667969 C -72.464844 472.15625 -11.898438 480.578125 -11.898438 480.578125 Z M -11.898438 480.578125 " fill-opacity="1" fill-rule="nonzero"/><path fill="#948b9e" d="M 358.476562 571.769531 C 358.476562 571.769531 335.242188 609.769531 270.671875 615.675781 C 228.335938 619.546875 182.734375 604.632812 157.445312 579.859375 C 142.300781 597.09375 105.199219 606.6875 52.308594 595.390625 C 27.953125 590.1875 0.449219 569.71875 9.691406 549.179688 C -49.105469 559.792969 -73 540.5 -78.640625 523.148438 C -58.089844 543.53125 3.074219 544.015625 33.3125 515.289062 C 33.3125 515.289062 39.53125 557.253906 94.417969 558.421875 C 142.683594 559.449219 168.871094 535.828125 168.871094 535.828125 C 168.871094 535.828125 272.980469 626.074219 358.476562 571.769531 Z M 358.476562 571.769531 " fill-opacity="1" fill-rule="nonzero"/><g clip-path="url(#f2abad1967)"><path fill="#948b9e" d="M 268.867188 375.171875 C 247.671875 351.203125 247.207031 301.042969 279.84375 282.878906 C 312.480469 264.714844 354.125 274.625 386.289062 293.609375 C 387.617188 246.257812 430.828125 204.023438 478.195312 203.773438 C 525.566406 203.523438 569.21875 245.304688 571.042969 292.636719 C 588.277344 276.890625 619.65625 274.449219 642.941406 287.339844 C 665.8125 299.996094 676.597656 320.023438 673.902344 342.746094 C 706.378906 332.859375 759.269531 355.453125 749 406.289062 C 735.148438 474.847656 639.242188 466.367188 639.242188 466.367188 C 639.242188 466.367188 616.007812 504.367188 551.4375 510.269531 C 509.101562 514.140625 463.5 499.230469 438.210938 474.453125 C 423.066406 491.6875 385.964844 501.285156 333.078125 489.988281 C 308.71875 484.785156 281.214844 464.3125 290.457031 443.773438 C 216.515625 457.125 197.769531 423.167969 201.109375 405.261719 C 208.300781 366.75 268.867188 375.171875 268.867188 375.171875 Z M 268.867188 375.171875 " fill-opacity="1" fill-rule="nonzero"/></g><path fill="#948b9e" d="M 639.242188 466.363281 C 639.242188 466.363281 616.003906 504.363281 551.433594 510.269531 C 509.101562 514.140625 463.5 499.226562 438.210938 474.453125 C 423.066406 491.6875 385.964844 501.28125 333.074219 489.984375 C 308.714844 484.78125 281.214844 464.3125 290.457031 443.773438 C 231.660156 454.386719 207.765625 435.09375 202.125 417.742188 C 222.675781 438.125 283.839844 438.609375 314.078125 409.882812 C 314.078125 409.882812 320.292969 451.847656 375.183594 453.015625 C 423.449219 454.042969 449.636719 430.421875 449.636719 430.421875 C 449.636719 430.421875 553.746094 520.667969 639.242188 466.363281 Z M 639.242188 466.363281 " fill-opacity="1" fill-rule="nonzero"/><g clip-path="url(#53d1ce3503)"><path fill="#ceb1ba" d="M -21.953125 331.792969 C -43.148438 307.824219 -43.613281 257.664062 -10.976562 239.503906 C 21.664062 221.339844 63.304688 231.246094 95.472656 250.234375 C 96.800781 202.882812 140.007812 160.644531 187.378906 160.394531 C 234.75 160.144531 278.398438 201.925781 280.226562 249.261719 C 297.460938 233.511719 328.839844 231.074219 352.125 243.960938 C 374.996094 256.621094 385.777344 276.644531 383.082031 299.367188 C 415.5625 289.484375 468.449219 312.078125 458.179688 362.914062 C 444.332031 431.46875 348.421875 422.988281 348.421875 422.988281 C 348.421875 422.988281 325.1875 460.988281 260.617188 466.894531 C 218.28125 470.765625 172.683594 455.851562 147.394531 431.078125 C 132.246094 448.3125 95.148438 457.90625 42.257812 446.609375 C 17.898438 441.40625 -9.605469 420.9375 -0.363281 400.398438 C -74.304688 413.75 -93.050781 379.792969 -89.707031 361.886719 C -82.519531 323.371094 -21.953125 331.792969 -21.953125 331.792969 Z M -21.953125 331.792969 " fill-opacity="1" fill-rule="nonzero"/></g><path fill="#ceb1ba" d="M 348.421875 422.988281 C 348.421875 422.988281 325.1875 460.984375 260.617188 466.890625 C 218.28125 470.761719 172.683594 455.851562 147.394531 431.074219 C 132.246094 448.308594 95.144531 457.90625 42.257812 446.609375 C 17.898438 441.40625 -9.605469 420.933594 -0.363281 400.394531 C -59.15625 411.011719 -83.050781 391.714844 -88.695312 374.363281 C -68.140625 394.746094 -6.980469 395.230469 23.257812 366.503906 C 23.257812 366.503906 29.476562 408.46875 84.363281 409.636719 C 132.628906 410.664062 158.820312 387.046875 158.820312 387.046875 C 158.820312 387.046875 262.925781 477.289062 348.421875 422.988281 Z M 348.421875 422.988281 " fill-opacity="1" fill-rule="nonzero"/><g clip-path="url(#06dcd7ea2a)"><path fill="#ceb1ba" d="M 622.109375 375.171875 C 600.914062 351.203125 600.449219 301.042969 633.085938 282.878906 C 665.726562 264.714844 707.367188 274.625 739.535156 293.609375 C 740.859375 246.257812 784.070312 204.023438 831.441406 203.773438 C 878.8125 203.523438 922.460938 245.304688 924.285156 292.636719 C 941.519531 276.890625 972.902344 274.449219 996.183594 287.339844 C 1019.058594 299.996094 1029.839844 320.023438 1027.144531 342.746094 C 1059.621094 332.859375 1112.511719 355.453125 1102.242188 406.289062 C 1088.394531 474.847656 992.484375 466.367188 992.484375 466.367188 C 992.484375 466.367188 969.25 504.367188 904.679688 510.269531 C 862.34375 514.140625 816.746094 499.230469 791.457031 474.453125 C 776.308594 491.6875 739.207031 501.285156 686.320312 489.988281 C 661.960938 484.785156 634.457031 464.3125 643.699219 443.773438 C 569.757812 457.125 551.011719 423.167969 554.355469 405.261719 C 561.542969 366.75 622.109375 375.171875 622.109375 375.171875 Z M 622.109375 375.171875 " fill-opacity="1" fill-rule="nonzero"/></g><path fill="#ceb1ba" d="M 992.484375 466.363281 C 992.484375 466.363281 969.25 504.363281 904.679688 510.269531 C 862.34375 514.140625 816.742188 499.226562 791.453125 474.453125 C 776.308594 491.6875 739.207031 501.28125 686.320312 489.984375 C 661.960938 484.78125 634.457031 464.3125 643.699219 443.773438 C 584.90625 454.386719 561.011719 435.09375 555.367188 417.742188 C 575.921875 438.125 637.082031 438.609375 667.320312 409.882812 C 667.320312 409.882812 673.539062 451.847656 728.425781 453.015625 C 776.691406 454.042969 802.878906 430.421875 802.878906 430.421875 C 802.878906 430.421875 906.988281 520.667969 992.484375 466.363281 Z M 992.484375 466.363281 " fill-opacity="1" fill-rule="nonzero"/><g clip-path="url(#aa84d75be9)"><path fill="#948b9e" d="M 1127.683594 393.292969 C 1106.488281 369.324219 1106.023438 319.164062 1138.660156 301 C 1171.296875 282.835938 1212.941406 292.746094 1245.109375 311.730469 C 1246.433594 264.378906 1289.644531 222.144531 1337.015625 221.894531 C 1384.382812 221.644531 1428.035156 263.425781 1429.859375 310.761719 C 1447.09375 295.011719 1478.476562 292.570312 1501.757812 305.460938 C 1524.632812 318.117188 1535.414062 338.144531 1532.71875 360.867188 C 1565.195312 350.980469 1618.085938 373.578125 1607.816406 424.410156 C 1593.964844 492.96875 1498.058594 484.488281 1498.058594 484.488281 C 1498.058594 484.488281 1474.824219 522.488281 1410.253906 528.390625 C 1367.917969 532.265625 1322.320312 517.351562 1297.03125 492.578125 C 1281.882812 509.8125 1244.78125 519.40625 1191.894531 508.109375 C 1167.535156 502.90625 1140.03125 482.433594 1149.273438 461.894531 C 1075.332031 475.246094 1056.585938 441.292969 1059.925781 423.382812 C 1067.117188 384.871094 1127.683594 393.292969 1127.683594 393.292969 Z M 1127.683594 393.292969 " fill-opacity="1" fill-rule="nonzero"/></g><path fill="#948b9e" d="M 1498.058594 484.488281 C 1498.058594 484.488281 1474.824219 522.484375 1410.253906 528.390625 C 1367.917969 532.261719 1322.316406 517.347656 1297.027344 492.574219 C 1281.882812 509.808594 1244.78125 519.40625 1191.890625 508.109375 C 1167.535156 502.90625 1140.03125 482.433594 1149.273438 461.894531 C 1090.476562 472.511719 1066.582031 453.214844 1060.941406 435.863281 C 1081.492188 456.246094 1142.65625 456.730469 1172.894531 428.003906 C 1172.894531 428.003906 1179.113281 469.96875 1234 471.136719 C 1282.265625 472.164062 1308.453125 448.542969 1308.453125 448.542969 C 1308.453125 448.542969 1412.5625 538.789062 1498.058594 484.488281 Z M 1498.058594 484.488281 " fill-opacity="1" fill-rule="nonzero"/><path fill="#e1d4cf" d="M 212.398438 480.578125 C 191.203125 456.609375 190.738281 406.449219 223.375 388.285156 C 256.015625 370.121094 297.65625 380.03125 329.824219 399.015625 C 331.152344 351.664062 374.359375 309.429688 421.730469 309.179688 C 469.101562 308.929688 512.75 350.710938 514.578125 398.042969 C 531.8125 382.296875 563.191406 379.855469 586.476562 392.742188 C 609.347656 405.402344 620.128906 425.429688 617.433594 448.152344 C 649.914062 438.265625 702.800781 460.859375 692.53125 511.695312 C 678.683594 580.253906 582.773438 571.773438 582.773438 571.773438 C 582.773438 571.773438 559.539062 609.773438 494.96875 615.675781 C 452.632812 619.546875 407.035156 604.636719 381.746094 579.859375 C 366.597656 597.09375 329.5 606.691406 276.609375 595.394531 C 252.25 590.191406 224.746094 569.71875 233.988281 549.179688 C 160.046875 562.53125 141.300781 528.574219 144.644531 510.667969 C 151.832031 472.15625 212.398438 480.578125 212.398438 480.578125 Z M 212.398438 480.578125 " fill-opacity="1" fill-rule="nonzero"/><path fill="#e1d4cf" d="M 582.773438 571.769531 C 582.773438 571.769531 559.539062 609.769531 494.96875 615.675781 C 452.632812 619.546875 407.035156 604.632812 381.746094 579.859375 C 366.597656 597.09375 329.496094 606.6875 276.609375 595.390625 C 252.25 590.1875 224.746094 569.71875 233.988281 549.179688 C 175.195312 559.792969 151.300781 540.5 145.65625 523.148438 C 166.210938 543.53125 227.371094 544.015625 257.609375 515.289062 C 257.609375 515.289062 263.828125 557.253906 318.714844 558.421875 C 366.980469 559.449219 393.171875 535.828125 393.171875 535.828125 C 393.171875 535.828125 497.277344 626.074219 582.773438 571.769531 Z M 582.773438 571.769531 " fill-opacity="1" fill-rule="nonzero"/><g clip-path="url(#f4ba8e91b5)"><path fill="#f2e3de" d="M 549.632812 471.105469 C 528.4375 447.136719 527.972656 396.976562 560.609375 378.816406 C 593.246094 360.652344 634.886719 370.558594 667.054688 389.546875 C 668.382812 342.195312 711.59375 299.957031 758.960938 299.707031 C 806.332031 299.457031 849.984375 341.238281 851.808594 388.574219 C 869.042969 372.824219 900.421875 370.386719 923.707031 383.273438 C 946.578125 395.933594 957.363281 415.957031 954.667969 438.679688 C 987.144531 428.796875 1040.035156 451.390625 1029.765625 502.226562 C 1015.914062 570.78125 920.007812 562.300781 920.007812 562.300781 C 920.007812 562.300781 896.773438 600.300781 832.203125 606.207031 C 789.867188 610.078125 744.265625 595.164062 718.976562 570.390625 C 703.832031 587.625 666.730469 597.21875 613.839844 585.921875 C 589.484375 580.71875 561.980469 560.25 571.222656 539.710938 C 497.28125 553.0625 478.53125 519.105469 481.875 501.199219 C 489.0625 462.683594 549.632812 471.105469 549.632812 471.105469 Z M 549.632812 471.105469 " fill-opacity="1" fill-rule="nonzero"/></g><path fill="#ceb1ba" d="M 920.003906 562.300781 C 920.003906 562.300781 896.769531 600.300781 832.199219 606.203125 C 789.867188 610.074219 744.265625 595.164062 718.976562 570.386719 C 703.828125 587.621094 666.730469 597.21875 613.839844 585.921875 C 589.480469 580.71875 561.980469 560.246094 571.222656 539.707031 C 512.425781 550.324219 488.53125 531.027344 482.886719 513.675781 C 503.441406 534.058594 564.605469 534.542969 594.84375 505.816406 C 594.84375 505.816406 601.058594 547.78125 655.945312 548.949219 C 704.214844 549.976562 730.402344 526.359375 730.402344 526.359375 C 730.402344 526.359375 834.511719 616.601562 920.003906 562.300781 Z M 920.003906 562.300781 " fill-opacity="1" fill-rule="nonzero"/><path fill="#e1d4cf" d="M 969.675781 514.460938 C 948.480469 490.492188 948.015625 440.332031 980.652344 422.167969 C 1013.289062 404.003906 1054.933594 413.914062 1087.097656 432.898438 C 1088.425781 385.546875 1131.636719 343.308594 1179.007812 343.0625 C 1226.375 342.8125 1270.027344 384.589844 1271.851562 431.925781 C 1289.085938 416.179688 1320.464844 413.738281 1343.75 426.625 C 1366.621094 439.285156 1377.40625 459.3125 1374.710938 482.035156 C 1407.1875 472.148438 1460.078125 494.742188 1449.808594 545.578125 C 1435.957031 614.136719 1340.050781 605.65625 1340.050781 605.65625 C 1340.050781 605.65625 1316.816406 643.652344 1252.246094 649.558594 C 1209.910156 653.429688 1164.308594 638.519531 1139.019531 613.742188 C 1123.875 630.976562 1086.773438 640.574219 1033.886719 629.277344 C 1009.527344 624.074219 982.023438 603.601562 991.265625 583.0625 C 917.324219 596.414062 898.578125 562.457031 901.917969 544.550781 C 909.109375 506.039062 969.675781 514.460938 969.675781 514.460938 Z M 969.675781 514.460938 " fill-opacity="1" fill-rule="nonzero"/><path fill="#e1d4cf" d="M 1340.050781 605.652344 C 1340.050781 605.652344 1316.8125 643.652344 1252.242188 649.554688 C 1209.910156 653.429688 1164.308594 638.515625 1139.019531 613.742188 C 1123.875 630.976562 1086.773438 640.570312 1033.882812 629.273438 C 1009.523438 624.070312 982.023438 603.597656 991.265625 583.0625 C 932.46875 593.675781 908.574219 574.382812 902.933594 557.027344 C 923.484375 577.414062 984.648438 577.898438 1014.886719 549.171875 C 1014.886719 549.171875 1021.105469 591.136719 1075.992188 592.304688 C 1124.257812 593.328125 1150.445312 569.710938 1150.445312 569.710938 C 1150.445312 569.710938 1254.554688 659.953125 1340.050781 605.652344 Z M 1340.050781 605.652344 " fill-opacity="1" fill-rule="nonzero"/></svg>